PathFileType	4	(X/Y/Z)	Kaydara	
DataRate	CameraRate	NumFrames	NumMarkers	Units	OrigDataRate	OrigDataStartFrame	OrigNumFrames	
240.00	240.00	4	72	mm	240.00	270	359	
Frame#	Time	Hips			RightUpLeg			RightLeg			RightFoot			RightFoot_End			LeftUpLeg			LeftLeg			LeftFoot			LeftFoot_End			Spine			Spine1			Spine2			Spine3			Neck			Head			Head_End			RightShoulder			RightArm			RightForeArm			RightHand			RightHandThumb1			RightHandThumb2			RightHandThumb3			RightHandThumb3_End			RightInHandIndex			RightHandIndex1			RightHandIndex2			RightHandIndex3			RightHandIndex3_End			RightInHandMiddle			RightHandMiddle1			RightHandMiddle2			RightHandMiddle3			RightHandMiddle3_End			RightInHandRing			RightHandRing1			RightHandRing2			RightHandRing3			RightHandRing3_End			RightInHandPinky			RightHandPinky1			RightHandPinky2			RightHandPinky3			RightHandPinky3_End			LeftShoulder			LeftArm			LeftForeArm			LeftHand			LeftHandThumb1			LeftHandThumb2			LeftHandThumb3			LeftHandThumb3_End			LeftInHandIndex			LeftHandIndex1			LeftHandIndex2			LeftHandIndex3			LeftHandIndex3_End			LeftInHandMiddle			LeftHandMiddle1			LeftHandMiddle2			LeftHandMiddle3			LeftHandMiddle3_End			LeftInHandRing			LeftHandRing1			LeftHandRing2			LeftHandRing3			LeftHandRing3_End			LeftInHandPinky			LeftHandPinky1			LeftHandPinky2			LeftHandPinky3			LeftHandPinky3_End			
		X1	Y1	Z1	X2	Y2	Z2	X3	Y3	Z3	X4	Y4	Z4	X5	Y5	Z5	X6	Y6	Z6	X7	Y7	Z7	X8	Y8	Z8	X9	Y9	Z9	X10	Y10	Z10	X11	Y11	Z11	X12	Y12	Z12	X13	Y13	Z13	X14	Y14	Z14	X15	Y15	Z15	X16	Y16	Z16	X17	Y17	Z17	X18	Y18	Z18	X19	Y19	Z19	X20	Y20	Z20	X21	Y21	Z21	X22	Y22	Z22	X23	Y23	Z23	X24	Y24	Z24	X25	Y25	Z25	X26	Y26	Z26	X27	Y27	Z27	X28	Y28	Z28	X29	Y29	Z29	X30	Y30	Z30	X31	Y31	Z31	X32	Y32	Z32	X33	Y33	Z33	X34	Y34	Z34	X35	Y35	Z35	X36	Y36	Z36	X37	Y37	Z37	X38	Y38	Z38	X39	Y39	Z39	X40	Y40	Z40	X41	Y41	Z41	X42	Y42	Z42	X43	Y43	Z43	X44	Y44	Z44	X45	Y45	Z45	X46	Y46	Z46	X47	Y47	Z47	X48	Y48	Z48	X49	Y49	Z49	X50	Y50	Z50	X51	Y51	Z51	X52	Y52	Z52	X53	Y53	Z53	X54	Y54	Z54	X55	Y55	Z55	X56	Y56	Z56	X57	Y57	Z57	X58	Y58	Z58	X59	Y59	Z59	X60	Y60	Z60	X61	Y61	Z61	X62	Y62	Z62	X63	Y63	Z63	X64	Y64	Z64	X65	Y65	Z65	X66	Y66	Z66	X67	Y67	Z67	X68	Y68	Z68	X69	Y69	Z69	X70	Y70	Z70	X71	Y71	Z71	X72	Y72	Z72	

270	1.121	2198.941	914.58397	126.699	2245.3967883268856	887.8519564632948	51.15753779027811	2148.256355654045	493.54144426198593	-51.50948100871983	2142.4431366998883	102.42880719637185	-129.42859392771996	1991.3404151497525	25.514404603633682	-41.16525410222155	2165.763343427179	914.9246955651488	214.2548629063738	2074.341111710551	512.2714058695437	284.284389202712	1993.515578395261	86.94603948270918	361.1843647160148	1872.8721733358368	3.840787262301868	238.40077506415363	2137.2823682724415	1033.4930251125486	76.50864898798531	2077.3209746775024	1089.4538496467326	24.458512583074196	2011.8777602469393	1140.9654581425996	-32.994574708224555	1945.1995982190733	1179.520643257249	-92.23942625985559	1872.7907117429766	1221.0805105457623	-153.94954520011294	1805.4238111734662	1259.6259878809128	-207.6906692789888	1670.3929584905788	1341.4266702704592	-226.85406535558204	1910.4558537490896	1196.4074352958016	-156.42093581484497	1929.666062225797	1128.984267966175	-241.7481894247575	1926.1805817359134	944.0382050777586	-131.83503978683464	1861.1370115809304	823.8116908588597	-140.580390189675	1860.4929793998604	836.8880231021069	-139.7565774467438	1856.9718316217618	838.7165219950372	-138.34060021189924	1854.529634650049	836.4327304761498	-137.5569980056232	1852.5021745186132	831.4857732342718	-137.07696262452782	1860.7562292352843	825.4505628700437	-140.5252313477468	1858.9691329830005	814.2664186920377	-140.6792031071281	1856.1938402206597	805.8729780833692	-140.15400456529608	1853.7583009341163	804.0852119593721	-139.30349683620716	1851.263392767595	804.9194111674847	-138.24608823988532	1860.7726372133004	816.1359201029313	-141.0405392200787	1859.038870061678	800.1891255475717	-141.46963221443164	1856.0165243728297	789.8366776378109	-140.96323520084363	1853.081034964863	787.1070723577865	-139.96914340287242	1850.3525612290202	787.7414175899205	-138.8277048285656	1860.8450958918538	809.8212457242057	-141.4084499912301	1859.3988462902983	789.9917299397116	-142.1351241930799	1856.7733014984515	779.773928266594	-141.76116814776927	1853.9464332529078	776.5066382811024	-140.83808465240983	1851.3831786823112	776.8024705322453	-139.7818124115524	1860.8601541837434	803.0191492794137	-141.76677868363828	1859.5935834352522	780.5698535176973	-142.6803280990105	1857.5109817406255	770.6107777563183	-142.48282604393353	1855.4586480288071	767.3679878314564	-141.85884126564238	1853.193546507695	767.1353319990853	-140.95153960026548	1883.4311570030488	1218.5997111492616	-109.47761637988545	1855.0803161010988	1228.3908715828095	-5.115373439144553	1909.6713935703176	1030.4756566266285	-32.00711207382203	1885.8558375311	860.846444124991	-106.38363032920016	1884.0843386089539	867.5481485897101	-112.89812432524263	1889.0549432545677	857.1004453252447	-122.81136809006401	1892.6619608925882	846.7071611880398	-129.63703536729918	1895.7934423490697	835.3757883216899	-135.2606431405642	1883.7720898991722	857.7483216696011	-112.959139412996	1884.0346170982898	838.155399788315	-123.8342961057232	1887.8028931113947	820.4572863098354	-132.77711430576224	1891.9748798703286	811.2838169295488	-138.31107798155793	1896.6619177641621	804.9249431896224	-142.87414461204548	1884.329094968457	849.7580281352884	-112.43404941863	1884.885414804763	826.3268875622441	-122.75693338548906	1889.0744764701867	806.0189027105769	-132.41248320936887	1894.144839272921	794.4735878882325	-139.03965512509671	1899.2913008757798	787.283523637441	-144.00848503859314	1884.6805125658414	844.629847103758	-111.7732512725225	1885.3805579187926	819.2289186578705	-120.41499385659773	1889.1101030175519	800.547311131424	-128.70956059233805	1894.0424774930257	788.8899212386871	-135.03760385136127	1898.9011672002157	781.882558287809	-139.67904342480466	1885.3568389667266	839.1531956043802	-110.79351091345309	1886.2971577408136	812.52993456855	-118.07788561265593	1889.40306814797	796.1504226438731	-124.49311364930783	1893.0585371476911	786.9605875657088	-128.99912419668672	1897.395794763593	780.3578898213813	-133.04755403100935
271	1.125	2198.941	914.58397	126.699	2245.4152581705057	887.8876839787602	51.16138051984009	2148.221684650681	493.5962240283503	-51.52850890146011	2142.3048298708477	102.49559118241997	-129.481459654137	1991.2051798420923	25.57929925297125	-41.21450797755282	2165.743722650262	914.8848662854026	214.24263919729097	2074.347784528106	512.2206096167241	284.2440187873345	1993.4916937430141	86.88617135140828	361.06153033370015	1872.8569642433526	3.7711436407823347	238.27604511812203	2137.2866936010714	1033.5097089528417	76.54576674680233	2077.343068425815	1089.4794978789066	24.48313644380904	2011.8901167480153	1140.9619141330834	-32.98780769101722	1945.2318326191826	1179.5331617392937	-92.24478080674263	1872.842726684232	1221.108433013095	-153.96794040750422	1805.493494728399	1259.6684450714629	-207.7209391976543	1670.4677236024388	1341.4716444955009	-226.90801835800656	1910.4807229803048	1196.3680546361516	-156.4473927479564	1929.348354171856	1128.510449299272	-241.58594952651356	1926.336824052448	942.9586719912661	-132.36789474254454	1860.5947262010031	823.8167858289085	-134.89603412773073	1861.5966921092472	838.0171555389255	-135.33025344012205	1858.7777924006357	839.9323081573597	-135.93365554692386	1856.6367464321947	837.5439277914066	-136.5958120115344	1854.6996077414487	832.3686825960582	-137.35480667449755	1861.3967521554275	826.1592255671051	-136.3149182769411	1860.463443131153	815.1456141315992	-139.04514583066506	1857.9653744626607	806.5095388449325	-140.53116621699377	1855.6150272923812	804.4937260394787	-140.81885404285885	1853.1318407957126	805.0870940328609	-140.62786347459374	1860.8573441189833	816.3728824393039	-136.8582747369299	1859.6557843894536	800.3373796521239	-139.8152840699691	1856.8594411442757	789.6569261736731	-141.49914342771768	1853.9900208019985	786.6218391668644	-141.8761398229293	1851.2565254876074	786.9779196763731	-141.68169597830632	1860.5174925144652	809.7232235437501	-137.17881559798235	1859.1966085985398	789.5310962260004	-140.12564799315342	1856.6889908255603	778.9628716900651	-141.65228246572636	1853.8838672029894	775.3666531692279	-142.04723637277291	1851.2959959647055	775.3846048606281	-141.8792495664893	1860.0155896805259	802.509426522284	-137.419307003909	1858.5528244226155	779.4825923661464	-140.29250794322598	1856.4407525785728	769.1437971152416	-141.59407733622984	1854.3443431480055	765.6131397457743	-141.92041867054456	1852.0229427795994	765.1067349556448	-141.79363342188333	1883.4983564641022	1218.686440783275	-109.47954126551303	1855.3485587478744	1229.0678592275372	-5.070704222438545	1909.0917629298453	1030.6538230994715	-30.37183307937488	1884.2865814600634	860.3947996452837	-103.63977551401287	1881.6918889248561	866.7618187202398	-109.73889910880418	1886.0068418834787	856.1337971733142	-119.98729712318413	1889.2556338140596	845.6586768829583	-127.0771896927934	1892.172630776479	834.2964962061033	-132.9474389191711	1881.659862504974	857.0818476813687	-109.79883913875238	1881.4439260834718	837.3498158190324	-120.4700367145582	1884.862585595614	819.588163680722	-129.66328875166525	1888.7650692368934	810.3686236422287	-135.5590436154814	1893.1938662654488	803.9671830242455	-140.560576771224	1882.5002815705006	849.2169402989852	-109.38333156713774	1882.7432245115583	825.7179256803736	-119.56643895414503	1886.5897122392803	805.357645055984	-129.51087494235145	1891.3536098937327	793.7649231570824	-136.58202492140614	1896.2265894929938	786.5322580742719	-142.0342615507517	1883.0648558359662	844.1808151624084	-108.80133488620825	1883.6711894797447	818.7987358029387	-117.37502709016749	1887.1424180958923	800.0890696874583	-125.93760878321609	1891.8005689825168	788.3952543732394	-132.7025159402646	1896.4122504265472	781.3522445928486	-137.80256030939836	1883.995072933242	838.8149177621915	-107.94844225718408	1885.0082096085218	812.276914371676	-115.23571294028667	1887.9705046755937	795.9021865554242	-121.8911833714167	1891.4565415252227	786.6989679836187	-126.72824297768207	1895.5925956260112	780.0722818103286	-131.19005441122042
272	1.129	2198.941	914.58397	126.699	2245.393728211917	887.8759465855859	51.15579268973362	2148.168307266201	493.60577524541566	-51.58563356084107	2142.232508633791	102.5139604436034	-129.56870701892956	1991.1360604094518	25.5950961291827	-41.29851462051895	2165.7616254451577	914.8939365431063	214.2460116867933	2074.395216145143	512.2188028158173	284.2241758373551	1993.5080562753762	86.87485780101612	360.9576509600795	1872.881342244292	3.752180851468893	238.169481129229	2137.3038553191404	1033.522228079476	76.55596396850171	2077.3891101964186	1089.496854372967	24.465047899934042	2011.945179688982	1140.9551264462546	-33.038763505870335	1945.312509970319	1179.5301949760296	-92.32147599316053	1872.9473939818695	1221.107984228968	-154.07056533903614	1805.6186543433637	1259.6722179576425	-207.84583757982026	1670.5789637332084	1341.4532411269438	-227.0337821000337	1910.53748920891	1196.2713817824776	-156.54465829437967	1929.0761593459713	1127.9973061666064	-241.50984262055002	1926.0570611778724	942.2724408168882	-132.29086154583828	1860.367232096644	823.584622990292	-132.71597612827685	1862.1777215998554	838.2571518893233	-133.9075205812905	1859.575470073905	840.1626075009076	-135.54394342217995	1857.4825870485108	837.6961462439739	-136.9139039442603	1855.4977356953827	832.3947916854913	-138.25304939617843	1861.7223329508795	826.219261748348	-134.90153162670268	1861.0863298257352	815.2473085811033	-138.8409876340115	1858.589210373633	806.4671339570409	-141.26780162482643	1856.187005374106	804.3215961266213	-142.1104919810421	1853.625518353838	804.7805163165455	-142.35871541496635	1860.8834349959398	816.2292459149971	-135.37599424309107	1859.8099227107755	800.1242569303845	-139.47515629331133	1856.9738757351574	789.2593376841716	-142.17272159155957	1854.0223420541508	786.0546779377592	-143.21312122750078	1851.193668546769	786.2572966374105	-143.4962501892864	1860.3258862554544	809.4359285807797	-135.61616156785576	1858.9351068735878	789.0606235302394	-139.51435124679412	1856.351027195232	778.3038871423034	-141.9095710000411	1853.4444698208738	774.529374017652	-142.93648461106096	1850.7565736377026	774.3960530782771	-143.21376862088692	1859.552811333021	802.0451131061309	-135.73562759639398	1857.8638212212074	778.7455124570143	-139.4043589869333	1855.62551322949	768.2132872452389	-141.37397112260138	1853.4236705402611	764.532034136278	-142.14796863080585	1850.9955662667535	763.8798012108269	-142.40796842544336	1883.6369664945887	1218.783109251126	-109.5712120063455	1855.6810856720879	1229.7153608814197	-5.117748876911317	1908.5428939841354	1030.7846053001506	-28.75347943656628	1882.8497943965308	859.9453501577412	-100.74051056480275	1880.0241643864406	866.2864791592472	-106.60500397961523	1883.9234857728572	855.5265371094048	-116.84903467609001	1886.884707563741	844.958171792325	-123.96380225231152	1889.5635732446262	833.5170813704268	-129.87866984503344	1879.9930590025153	856.6091095501756	-106.72562028664379	1879.3658919909428	836.7934965860858	-117.31188576031339	1882.4161840921574	818.9207813268465	-126.54145982146723	1886.0749192575602	809.6107623284266	-132.4960289912122	1890.2920279168507	803.1199780346384	-137.57068093897414	1880.848983445303	848.7408597320263	-106.39352964924916	1880.6992359236115	825.1585289780164	-116.53888957894645	1884.1470383454823	804.6768196870157	-126.53436348123753	1888.6184354159814	792.9748255138832	-133.68194126763228	1893.2605542471097	785.6443466596606	-139.21684378360052	1881.4357718484978	843.7050172590915	-105.87183121876392	1881.7116987353706	818.2500117299286	-114.46168628957027	1884.8393913397258	799.4343922599388	-123.08047503408713	1889.217504689624	787.6351140216591	-129.92532730052767	1893.613115179839	780.5001042041762	-135.10604747756634	1882.3974798420873	838.3378366047659	-105.09722486987033	1883.1294149831617	811.7338446747071	-112.44486107658132	1885.8242333582493	795.2744067647426	-119.16356131291643	1889.1096917117911	785.9943272191911	-124.06774986327262	1893.0564621341603	779.2861832005829	-128.60609996945516
273	1.133	2198.941	914.58397	126.699	2245.333808754544	887.8173946295955	51.14148027357556	2148.095743158304	493.5690766412735	-51.671791362744884	2142.2312566342375	102.48271580936749	-129.68094261124276	1991.1381700299892	25.560432474421503	-41.407971246372654	2165.815232303884	914.9511757360344	214.26433085315006	2074.4771021862616	512.2660805958203	284.2229796937695	1993.5501692450782	86.91216078853313	360.8613137086492	1872.9308790524744	3.7835073176144265	238.06990841810145	2137.3347119978284	1033.530907695815	76.53894898098771	2077.452567720932	1089.5006622387543	24.40624095472614	2012.0299907616297	1140.9362320491914	-33.141550772382786	1945.4236448763677	1179.5023871951423	-92.45847851313495	1873.082432977321	1221.0696143890552	-154.24164430830035	1805.7741813357645	1259.6279053628082	-208.0460718748598	1670.7181160497544	1341.3826631649583	-227.24023648000193	1910.6020784768336	1196.1081505317275	-156.696888366827	1928.8151400126674	1127.4258246029601	-241.4934825123544	1925.3132429876375	941.9850941152148	-131.55150693675864	1860.0447377435	823.1725462663379	-132.93363608648642	1861.8876170253584	837.7280210479183	-134.38686774587654	1859.0804554920044	839.539432408015	-136.12171660111412	1856.8225589675224	837.020829870169	-137.5057919505748	1854.6810546867691	831.6874321529533	-138.8101408571054	1861.372113449898	825.7275561215412	-135.2117389778645	1860.5377573849973	814.6821380403683	-139.0822333924921	1857.8123152637306	805.8492423416436	-141.45054733776433	1855.2521706778084	803.6648759655815	-142.30079164927585	1852.549171464983	804.0875776906242	-142.5848930141156	1860.4751372730798	815.7763386033209	-135.54006397329462	1859.176768412116	799.620679476797	-139.49291800057927	1856.0844421622337	788.7035868095277	-142.1075789784422	1852.9389383931962	785.4546543601042	-143.1479371972121	1849.953761515895	785.6188909244586	-143.465874413971	1859.8823488939993	809.0123959610648	-135.67848147231877	1858.2616017904281	788.6174387323457	-139.35645552747744	1855.4472059855136	777.8207831053827	-141.6601534631495	1852.3498609935975	774.0065110701063	-142.67680100100193	1849.5130647571802	773.8384986845136	-142.9819652568457	1859.068643692526	801.6568634194101	-135.6847438856283	1857.1460699153693	778.3612662861216	-139.08080021260702	1854.7134971952555	767.8058220008719	-140.9480404762523	1852.3677353380922	764.0998011487153	-141.70048056280552	1849.8049906534702	763.4192719201193	-141.97707988662916	1883.829452579182	1218.8799672309715	-109.74017321705112	1856.0672821282508	1230.342637444346	-5.24485650317955	1908.0889240405481	1030.919192085828	-27.23478108460656	1881.6038015538259	859.5474913932931	-97.79021667057494	1878.9688304314602	866.0847307335581	-103.58629990075647	1882.657234266149	855.2578537043686	-113.58366812621391	1885.405291847539	844.6088570403003	-120.5433718225099	1887.8497483198419	833.0714489589653	-126.34326551356514	1878.738455737466	856.3217435150931	-103.7835690049519	1877.7620036119902	836.4694305966098	-114.34468154961883	1880.457899457481	818.4732638668862	-123.43376049726774	1883.916292389577	809.063305478152	-129.2218122063924	1887.9810595385597	802.4741639868215	-134.10523540530977	1879.4209665267454	848.3575975058625	-103.49195850734054	1878.8367716998246	824.6876286353838	-113.63471697832212	1881.8759691080681	804.0585515730531	-123.48215334675317	1886.095157512372	792.2299116003479	-130.43136195142452	1890.5654819770423	784.7888586241036	-135.75825418911404	1879.8947811880387	843.2557049874531	-103.00085445321793	1879.6851219414884	817.6670586058738	-111.6188960088965	1882.434979446282	798.7101853614364	-120.11402833102179	1886.5582970829166	786.7819482123724	-126.77039254964242	1890.7869185344812	779.5397465215158	-131.7568824803628	1880.7314549263085	837.8074386919494	-102.25158084200689	1880.9429224109556	811.0334364822882	-109.6452172502242	1883.303453947155	794.4414854112196	-116.27314969981516	1886.3877131146874	785.0579550655038	-121.04384724123346	1890.1777243705862	778.2494566389456	-125.41243989048431
